<svg width="120" height="120" viewBox="0 0 120 120" fill="none" xmlns="http://www.w3.org/2000/svg">
  <!-- Shell logo - iconic scallop shell design -->
  <!-- Main shell shape - proper scallop fan -->
  <path d="M60 10 C30 10 10 30 10 60 C10 90 30 110 60 110 C90 110 110 90 110 60 C110 30 90 10 60 10 Z" fill="#FFD600" stroke="#D32F2F" stroke-width="2"/>
  
  <!-- Curved radiating lines (flutes) that converge at bottom -->
  <path d="M60 15 Q60 60 60 105" stroke="#D32F2F" stroke-width="2"/>
  <path d="M45 20 Q52 60 55 100" stroke="#D32F2F" stroke-width="2"/>
  <path d="M75 20 Q68 60 65 100" stroke="#D32F2F" stroke-width="2"/>
  <path d="M35 30 Q45 60 50 95" stroke="#D32F2F" stroke-width="2"/>
  <path d="M85 30 Q75 60 70 95" stroke="#D32F2F" stroke-width="2"/>
  <path d="M25 45 Q38 60 45 90" stroke="#D32F2F" stroke-width="2"/>
  <path d="M95 45 Q82 60 75 90" stroke="#D32F2F" stroke-width="2"/>
  <path d="M20 60 Q35 60 40 85" stroke="#D32F2F" stroke-width="2"/>
  <path d="M100 60 Q85 60 80 85" stroke="#D32F2F" stroke-width="2"/>
  
  <!-- Bottom hinge/opening -->
  <path d="M50 105 Q60 110 70 105" stroke="#D32F2F" stroke-width="3" fill="none"/>
</svg>