<svg width="32" height="32" viewBox="0 0 32 32" fill="none" xmlns="http://www.w3.org/2000/svg">
  <!-- Shell logo - iconic scallop shell design -->
  <!-- Main shell shape - proper scallop fan -->
  <path d="M16 3 C8 3 3 8 3 16 C3 24 8 29 16 29 C24 29 29 24 29 16 C29 8 24 3 16 3 Z" fill="#FFD600" stroke="#D32F2F" stroke-width="0.5"/>
  
  <!-- Curved radiating lines (flutes) that converge at bottom -->
  <path d="M16 4 Q16 16 16 28" stroke="#D32F2F" stroke-width="0.5"/>
  <path d="M12 5 Q14 16 15 27" stroke="#D32F2F" stroke-width="0.5"/>
  <path d="M20 5 Q18 16 17 27" stroke="#D32F2F" stroke-width="0.5"/>
  <path d="M9 8 Q12 16 13 25" stroke="#D32F2F" stroke-width="0.5"/>
  <path d="M23 8 Q20 16 19 25" stroke="#D32F2F" stroke-width="0.5"/>
  <path d="M7 12 Q10 16 11 23" stroke="#D32F2F" stroke-width="0.5"/>
  <path d="M25 12 Q22 16 21 23" stroke="#D32F2F" stroke-width="0.5"/>
  <path d="M5 16 Q8 16 9 21" stroke="#D32F2F" stroke-width="0.5"/>
  <path d="M27 16 Q24 16 23 21" stroke="#D32F2F" stroke-width="0.5"/>
  
  <!-- Bottom hinge/opening -->
  <path d="M13 28 Q16 29 19 28" stroke="#D32F2F" stroke-width="0.8" fill="none"/>
</svg> 