<svg width="32" height="32" viewBox="0 0 32 32" fill="none" xmlns="http://www.w3.org/2000/svg">
  <!-- Shell logo - characteristic shell shape -->
  <path d="M8 20 C8 14 12 10 18 10 C24 10 28 14 28 20 C28 26 24 30 18 30 C12 30 8 26 8 20 Z" fill="#FFD600" stroke="#D32F2F" stroke-width="1.5"/>
  
  <!-- Shell spiral lines -->
  <path d="M18 12 C14 12 11 15 11 19 C11 23 14 26 18 26 C22 26 25 23 25 19 C25 15 22 12 18 12 Z" fill="none" stroke="#D32F2F" stroke-width="1.5"/>
  <path d="M18 14 C15 14 13 16 13 19 C13 22 15 24 18 24 C21 24 23 22 23 19 C23 16 21 14 18 14 Z" fill="none" stroke="#D32F2F" stroke-width="1.5"/>
  <path d="M18 16 C16 16 15 17 15 19 C15 21 16 22 18 22 C20 22 21 21 21 19 C21 17 20 16 18 16 Z" fill="none" stroke="#D32F2F" stroke-width="1.5"/>
  
  <!-- Shell opening -->
  <ellipse cx="18" cy="19" rx="2.5" ry="1.5" fill="#D32F2F"/>
  
  <!-- Additional shell detail -->
  <path d="M16 18 Q18 15 20 18" stroke="#D32F2F" stroke-width="1" fill="none"/>
</svg> 